<svg enable-background="new 0 0 96.433 96.433" height="96.433" viewBox="0 0 96.433 96.433" width="96.433" xmlns="http://www.w3.org/2000/svg">
	<path d="m24.82 48.678c5.422 0 9.832-6.644 9.832-14.811 0-8.165-4.41-14.809-9.832-14.809s-9.833 6.644-9.833 14.809c0 8.167 4.412 14.811 9.833 14.811z"/>
	<path d="m71.606 48.678c5.422 0 9.833-6.644 9.833-14.811 0-8.165-4.411-14.809-9.833-14.809-5.421 0-9.831 6.644-9.831 14.809 0 8.167 4.411 14.811 9.831 14.811z"/>
	<path d="m95.855 55.806c-.6-.605-1.516-.77-2.285-.4-12.338 5.884-28.445 9.124-45.356 9.124-16.907 0-33.015-3.24-45.354-9.123-.77-.367-1.688-.205-2.284.4-.599.606-.747 1.526-.369 2.29 5.606 11.351 25.349 19.277 48.008 19.277 22.668 0 42.412-7.929 48.012-19.279.376-.763.226-1.684-.372-2.289z"/>
</svg>