<?xml version="1.0" standalone="no"?>
<!DOCTYPE svg PUBLIC "-//W3C//DTD SVG 20010904//EN"
 "http://www.w3.org/TR/2001/REC-SVG-20010904/DTD/svg10.dtd">
<svg version="1.0" xmlns="http://www.w3.org/2000/svg"
 width="141.000000pt" height="141.000000pt" viewBox="0 0 141.000000 141.000000"
 preserveAspectRatio="xMidYMid meet">
<metadata>
Created by potrace 1.14, written by Peter Selinger 2001-2017
</metadata>
<g transform="translate(0.000000,141.000000) scale(0.100000,-0.100000)"
fill="#000000" stroke="none">
<path d="M671 1280 c-103 -27 -192 -81 -276 -164 l-72 -72 -94 1 -94 1 -5
-101 -5 -100 -43 1 -43 0 3 -45 3 -46 43 -2 c41 -3 42 -2 43 30 2 60 3 61 37
60 76 -2 71 1 66 -50 -7 -63 -11 -74 -26 -72 -42 5 -48 -1 -48 -45 0 -44 0
-45 37 -48 36 -3 37 -4 49 -60 15 -63 52 -144 91 -195 23 -32 26 -33 99 -33
74 0 74 0 75 -27 3 -113 0 -106 54 -131 194 -93 423 -71 597 58 153 113 240
284 239 475 -1 39 -3 79 -5 90 -31 153 -108 279 -225 369 -146 112 -329 151
-500 106z m-44 -147 l-2 -48 -47 -2 c-52 -2 -56 5 -50 65 4 31 5 32 53 32 l48
0 -2 -47z m270 -127 c40 -9 128 -72 155 -112 113 -164 57 -381 -120 -461 -97
-45 -214 -30 -300 37 -92 73 -136 216 -101 330 29 92 121 184 209 208 35 9
114 8 157 -2z m-487 -466 l0 -40 -40 0 -40 0 0 40 0 40 40 0 40 0 0 -40z m192
-127 c2 -10 2 -29 -2 -43 -5 -21 -12 -25 -45 -25 -39 0 -39 0 -40 43 l-1 42
42 0 c31 0 43 -4 46 -17z"/>
<path d="M174 1268 c-9 -13 -11 -65 -3 -84 6 -17 14 -20 45 -18 21 2 41 -2 45
-8 4 -7 34 -11 71 -11 l63 0 2 67 1 67 -110 -3 c-60 -2 -112 -6 -114 -10z"/>
<path d="M5 1172 c-3 -3 -5 -27 -5 -53 l0 -47 53 1 52 2 0 50 0 50 -47 1 c-27
0 -50 -1 -53 -4z"/>
<path d="M88 632 c-14 -3 -18 -14 -18 -48 l0 -44 45 0 c29 0 45 5 46 13 3 25
0 69 -4 74 -7 6 -49 10 -69 5z"/>
<path d="M250 257 l0 -42 40 -1 c22 -1 40 2 41 5 1 3 2 23 3 44 l2 37 -43 0
-43 0 0 -43z"/>
</g>
</svg>
